<?xml version="1.0" encoding="UTF-8"?>
<svg xmlns="http://www.w3.org/2000/svg" xmlns:xlink="http://www.w3.org/1999/xlink" width="96pt" height="96pt" viewBox="0 0 96 96" version="1.1">
<defs>
<linearGradient id="linear0" gradientUnits="userSpaceOnUse" x1="0" y1="0" x2="1" y2="0" gradientTransform="matrix(40.840495,11.149858,-19.044235,23.910948,25.46875,25.332031)">
<stop offset="0" style="stop-color:rgb(3.137255%,35.686275%,12.54902%);stop-opacity:1;"/>
<stop offset="1" style="stop-color:rgb(25.490196%,88.627451%,58.823529%);stop-opacity:1;"/>
</linearGradient>
</defs>
<g id="surface1">
<rect x="0" y="0" width="96" height="96" style="fill:rgb(100%,100%,100%);fill-opacity:1;stroke:none;"/>
<path style=" stroke:none;fill-rule:nonzero;fill:rgb(0%,0%,0%);fill-opacity:1;" d="M 9.132812 66.660156 C 9.441406 66.660156 9.71875 66.617188 9.972656 66.535156 C 10.226562 66.449219 10.445312 66.335938 10.632812 66.191406 C 10.8125 66.046875 10.953125 65.871094 11.054688 65.667969 C 11.15625 65.464844 11.210938 65.242188 11.210938 65 C 11.210938 64.722656 11.144531 64.488281 11.019531 64.296875 C 10.894531 64.105469 10.726562 63.9375 10.515625 63.792969 C 10.304688 63.648438 10.0625 63.519531 9.792969 63.402344 C 9.527344 63.296875 9.253906 63.183594 8.972656 63.070312 C 8.695312 62.957031 8.421875 62.835938 8.152344 62.710938 C 7.878906 62.578125 7.640625 62.421875 7.429688 62.238281 C 7.21875 62.054688 7.050781 61.832031 6.921875 61.582031 C 6.796875 61.328125 6.734375 61.023438 6.734375 60.667969 C 6.734375 60.296875 6.804688 59.960938 6.949219 59.660156 C 7.09375 59.351562 7.296875 59.089844 7.554688 58.875 C 7.808594 58.65625 8.109375 58.492188 8.457031 58.378906 C 8.8125 58.257812 9.191406 58.199219 9.59375 58.199219 C 9.851562 58.199219 10.175781 58.226562 10.570312 58.289062 C 10.953125 58.34375 11.375 58.441406 11.832031 58.585938 L 11.679688 59.441406 L 11.542969 59.507812 C 11.316406 59.410156 11.09375 59.332031 10.875 59.269531 C 10.652344 59.207031 10.449219 59.15625 10.261719 59.125 C 10.074219 59.089844 9.902344 59.0625 9.746094 59.046875 C 9.589844 59.035156 9.457031 59.027344 9.351562 59.027344 C 9.066406 59.027344 8.816406 59.0625 8.601562 59.136719 C 8.386719 59.207031 8.203125 59.308594 8.050781 59.441406 C 7.902344 59.574219 7.785156 59.730469 7.707031 59.910156 C 7.628906 60.09375 7.589844 60.289062 7.589844 60.5 C 7.589844 60.789062 7.65625 61.035156 7.789062 61.238281 C 7.914062 61.441406 8.085938 61.621094 8.292969 61.769531 C 8.511719 61.921875 8.753906 62.054688 9.015625 62.175781 C 9.289062 62.289062 9.5625 62.410156 9.847656 62.527344 C 10.128906 62.644531 10.40625 62.761719 10.675781 62.890625 C 10.941406 63.015625 11.179688 63.167969 11.390625 63.339844 C 11.605469 63.515625 11.777344 63.71875 11.902344 63.953125 C 12.035156 64.195312 12.101562 64.476562 12.101562 64.800781 C 12.101562 65.15625 12.023438 65.496094 11.867188 65.820312 C 11.710938 66.148438 11.496094 66.433594 11.21875 66.679688 C 10.941406 66.925781 10.605469 67.121094 10.207031 67.265625 C 9.816406 67.410156 9.382812 67.480469 8.910156 67.480469 C 8.503906 67.480469 8.097656 67.429688 7.679688 67.320312 C 7.265625 67.210938 6.839844 67.058594 6.398438 66.859375 L 6.554688 66.003906 L 6.671875 65.9375 C 6.871094 66.054688 7.074219 66.15625 7.285156 66.246094 C 7.496094 66.335938 7.707031 66.410156 7.914062 66.472656 C 8.125 66.53125 8.332031 66.578125 8.539062 66.605469 C 8.75 66.644531 8.949219 66.660156 9.132812 66.660156 Z M 14.808594 65.785156 L 14.808594 61.609375 L 13.472656 61.609375 L 13.554688 61.128906 C 13.867188 61.070312 14.113281 60.996094 14.296875 60.914062 C 14.480469 60.828125 14.628906 60.71875 14.738281 60.578125 C 14.84375 60.433594 14.933594 60.253906 15 60.039062 C 15.066406 59.816406 15.140625 59.535156 15.222656 59.199219 L 15.730469 59.199219 L 15.730469 60.824219 L 18.148438 60.824219 L 17.921875 61.609375 L 15.695312 61.609375 L 15.695312 65.46875 C 15.695312 65.902344 15.800781 66.207031 16.019531 66.382812 C 16.230469 66.5625 16.527344 66.652344 16.910156 66.652344 C 17.085938 66.652344 17.277344 66.632812 17.488281 66.597656 C 17.695312 66.5625 17.886719 66.511719 18.066406 66.445312 L 18.066406 67.039062 C 17.820312 67.183594 17.578125 67.292969 17.335938 67.363281 C 17.09375 67.441406 16.847656 67.480469 16.597656 67.480469 C 16.34375 67.480469 16.109375 67.441406 15.890625 67.363281 C 15.675781 67.285156 15.484375 67.175781 15.324219 67.03125 C 15.167969 66.878906 15.039062 66.699219 14.945312 66.488281 C 14.855469 66.277344 14.808594 66.042969 14.808594 65.785156 Z M 23.488281 66.382812 C 23.398438 66.464844 23.285156 66.570312 23.144531 66.695312 C 23.007812 66.824219 22.847656 66.945312 22.660156 67.058594 C 22.480469 67.179688 22.28125 67.277344 22.0625 67.355469 C 21.847656 67.441406 21.621094 67.480469 21.386719 67.480469 C 21.164062 67.480469 20.949219 67.441406 20.738281 67.355469 C 20.519531 67.277344 20.328125 67.160156 20.160156 67.003906 C 19.992188 66.847656 19.851562 66.652344 19.746094 66.417969 C 19.644531 66.1875 19.589844 65.925781 19.589844 65.625 C 19.589844 65.359375 19.640625 65.097656 19.734375 64.839844 C 19.839844 64.578125 20.011719 64.347656 20.257812 64.144531 C 20.503906 63.9375 20.839844 63.773438 21.261719 63.648438 C 21.683594 63.519531 22.210938 63.457031 22.847656 63.457031 L 23.515625 63.457031 L 23.515625 62.800781 C 23.515625 62.601562 23.484375 62.421875 23.417969 62.265625 C 23.351562 62.109375 23.253906 61.976562 23.128906 61.859375 C 23.003906 61.746094 22.851562 61.660156 22.675781 61.597656 C 22.503906 61.539062 22.3125 61.507812 22.109375 61.507812 C 21.957031 61.507812 21.800781 61.523438 21.628906 61.554688 C 21.457031 61.585938 21.289062 61.625 21.125 61.679688 C 20.957031 61.734375 20.796875 61.800781 20.648438 61.878906 C 20.492188 61.957031 20.359375 62.042969 20.25 62.132812 L 20.132812 62.070312 L 19.941406 61.347656 C 20.179688 61.207031 20.402344 61.097656 20.609375 61.011719 C 20.828125 60.929688 21.035156 60.867188 21.234375 60.824219 C 21.425781 60.773438 21.605469 60.742188 21.773438 60.722656 C 21.945312 60.707031 22.101562 60.695312 22.246094 60.695312 C 22.636719 60.695312 22.964844 60.746094 23.238281 60.839844 C 23.507812 60.9375 23.730469 61.070312 23.90625 61.238281 C 24.078125 61.414062 24.207031 61.621094 24.285156 61.859375 C 24.363281 62.109375 24.402344 62.378906 24.402344 62.671875 L 24.402344 65.964844 C 24.402344 66.007812 24.402344 66.070312 24.410156 66.148438 C 24.421875 66.226562 24.441406 66.300781 24.472656 66.371094 C 24.503906 66.445312 24.546875 66.511719 24.609375 66.570312 C 24.667969 66.625 24.75 66.652344 24.851562 66.652344 C 24.917969 66.652344 25.003906 66.640625 25.105469 66.617188 C 25.210938 66.59375 25.316406 66.554688 25.421875 66.507812 L 25.421875 67.074219 C 25.246094 67.195312 25.082031 67.292969 24.925781 67.363281 C 24.769531 67.441406 24.601562 67.480469 24.425781 67.480469 C 24.265625 67.480469 24.128906 67.445312 24.011719 67.375 C 23.898438 67.300781 23.804688 67.210938 23.734375 67.101562 C 23.660156 66.996094 23.605469 66.875 23.570312 66.742188 C 23.527344 66.617188 23.5 66.496094 23.488281 66.382812 Z M 23.515625 65.597656 L 23.515625 64.160156 L 22.964844 64.160156 C 22.449219 64.160156 22.03125 64.199219 21.710938 64.277344 C 21.386719 64.351562 21.136719 64.449219 20.964844 64.566406 C 20.789062 64.6875 20.667969 64.828125 20.601562 64.984375 C 20.542969 65.140625 20.511719 65.296875 20.511719 65.460938 C 20.511719 65.636719 20.539062 65.796875 20.59375 65.949219 C 20.640625 66.09375 20.714844 66.214844 20.820312 66.316406 C 20.914062 66.425781 21.035156 66.507812 21.179688 66.5625 C 21.316406 66.621094 21.476562 66.652344 21.65625 66.652344 C 21.785156 66.652344 21.914062 66.632812 22.046875 66.597656 C 22.183594 66.5625 22.328125 66.503906 22.480469 66.425781 C 22.628906 66.347656 22.792969 66.238281 22.964844 66.101562 C 23.132812 65.964844 23.316406 65.792969 23.515625 65.597656 Z M 26.917969 67.355469 L 26.917969 60.824219 L 27.621094 60.824219 L 27.75 62.71875 C 27.898438 62.421875 28.050781 62.152344 28.207031 61.90625 C 28.371094 61.660156 28.542969 61.445312 28.722656 61.265625 C 28.910156 61.089844 29.109375 60.953125 29.316406 60.851562 C 29.527344 60.746094 29.761719 60.695312 30.023438 60.695312 C 30.128906 60.695312 30.230469 60.707031 30.320312 60.734375 C 30.402344 60.757812 30.5 60.796875 30.609375 60.851562 L 30.519531 61.652344 C 30.464844 61.636719 30.390625 61.621094 30.300781 61.609375 C 30.210938 61.601562 30.128906 61.597656 30.058594 61.597656 C 29.867188 61.597656 29.671875 61.636719 29.480469 61.707031 C 29.292969 61.773438 29.109375 61.886719 28.921875 62.050781 C 28.734375 62.210938 28.546875 62.421875 28.363281 62.683594 C 28.175781 62.941406 27.988281 63.261719 27.800781 63.648438 L 27.800781 67.355469 Z M 32.792969 65.785156 L 32.792969 61.609375 L 31.464844 61.609375 L 31.539062 61.128906 C 31.851562 61.070312 32.101562 60.996094 32.285156 60.914062 C 32.46875 60.828125 32.613281 60.71875 32.71875 60.578125 C 32.828125 60.433594 32.914062 60.253906 32.980469 60.039062 C 33.046875 59.816406 33.121094 59.535156 33.207031 59.199219 L 33.722656 59.199219 L 33.722656 60.824219 L 36.128906 60.824219 L 35.90625 61.609375 L 33.675781 61.609375 L 33.675781 65.46875 C 33.675781 65.902344 33.785156 66.207031 34 66.382812 C 34.21875 66.5625 34.515625 66.652344 34.894531 66.652344 C 35.074219 66.652344 35.265625 66.632812 35.472656 66.597656 C 35.683594 66.5625 35.875 66.511719 36.050781 66.445312 L 36.050781 67.039062 C 35.808594 67.183594 35.566406 67.292969 35.316406 67.363281 C 35.078125 67.441406 34.832031 67.480469 34.578125 67.480469 C 34.332031 67.480469 34.101562 67.441406 33.882812 67.363281 C 33.660156 67.285156 33.472656 67.175781 33.316406 67.03125 C 33.152344 66.878906 33.027344 66.699219 32.9375 66.488281 C 32.839844 66.277344 32.792969 66.042969 32.792969 65.785156 Z M 43.214844 60.824219 L 43.214844 67.355469 L 42.507812 67.355469 L 42.382812 66.199219 C 42.234375 66.351562 42.066406 66.503906 41.886719 66.660156 C 41.707031 66.8125 41.511719 66.945312 41.300781 67.066406 C 41.097656 67.195312 40.878906 67.292969 40.652344 67.363281 C 40.421875 67.441406 40.183594 67.480469 39.9375 67.480469 C 39.65625 67.480469 39.394531 67.429688 39.152344 67.320312 C 38.914062 67.21875 38.703125 67.066406 38.53125 66.867188 C 38.355469 66.671875 38.21875 66.429688 38.117188 66.148438 C 38.011719 65.863281 37.960938 65.546875 37.960938 65.199219 L 37.960938 60.824219 L 38.847656 60.824219 L 38.847656 65.074219 C 38.847656 65.332031 38.878906 65.558594 38.945312 65.757812 C 39.019531 65.957031 39.113281 66.121094 39.234375 66.246094 C 39.355469 66.378906 39.5 66.480469 39.667969 66.554688 C 39.835938 66.617188 40.015625 66.652344 40.207031 66.652344 C 40.558594 66.652344 40.90625 66.550781 41.253906 66.34375 C 41.609375 66.140625 41.96875 65.859375 42.328125 65.496094 L 42.328125 60.824219 Z M 46.363281 62.664062 L 46.363281 66.34375 C 46.710938 66.488281 47.019531 66.578125 47.28125 66.617188 C 47.546875 66.65625 47.757812 66.679688 47.914062 66.679688 C 48.324219 66.679688 48.6875 66.617188 49.007812 66.488281 C 49.332031 66.363281 49.605469 66.1875 49.828125 65.957031 C 50.054688 65.722656 50.230469 65.445312 50.351562 65.128906 C 50.472656 64.808594 50.53125 64.453125 50.53125 64.0625 C 50.53125 63.726562 50.484375 63.402344 50.386719 63.097656 C 50.296875 62.789062 50.164062 62.519531 49.988281 62.285156 C 49.816406 62.054688 49.601562 61.871094 49.347656 61.734375 C 49.101562 61.597656 48.824219 61.527344 48.511719 61.527344 C 48.136719 61.527344 47.773438 61.625 47.417969 61.824219 C 47.0625 62.015625 46.710938 62.296875 46.363281 62.664062 Z M 46.363281 67.285156 L 46.363281 70.667969 L 45.476562 70.667969 L 45.476562 60.824219 L 46.183594 60.824219 L 46.316406 61.976562 C 46.449219 61.847656 46.601562 61.707031 46.777344 61.5625 C 46.953125 61.414062 47.148438 61.273438 47.363281 61.148438 C 47.574219 61.023438 47.804688 60.917969 48.050781 60.832031 C 48.296875 60.742188 48.558594 60.695312 48.835938 60.695312 C 49.238281 60.695312 49.597656 60.789062 49.917969 60.96875 C 50.242188 61.148438 50.515625 61.386719 50.738281 61.679688 C 50.96875 61.980469 51.144531 62.324219 51.269531 62.710938 C 51.390625 63.09375 51.453125 63.492188 51.453125 63.910156 C 51.453125 64.425781 51.355469 64.90625 51.164062 65.34375 C 50.976562 65.78125 50.714844 66.160156 50.378906 66.480469 C 50.046875 66.792969 49.660156 67.039062 49.214844 67.21875 C 48.761719 67.394531 48.277344 67.480469 47.761719 67.480469 C 47.488281 67.480469 47.238281 67.460938 47.003906 67.417969 C 46.769531 67.375 46.554688 67.332031 46.363281 67.285156 Z M 59.402344 59.152344 L 59.402344 67.355469 L 58.5 67.355469 L 58.5 59.152344 L 55.367188 59.152344 L 55.539062 58.324219 L 62.613281 58.324219 L 62.441406 59.152344 Z M 65.175781 67.480469 C 64.699219 67.480469 64.273438 67.390625 63.894531 67.210938 C 63.519531 67.035156 63.203125 66.800781 62.9375 66.5 C 62.679688 66.199219 62.480469 65.847656 62.34375 65.453125 C 62.199219 65.0625 62.125 64.648438 62.125 64.214844 C 62.125 63.722656 62.210938 63.261719 62.386719 62.835938 C 62.5625 62.410156 62.800781 62.039062 63.101562 61.726562 C 63.40625 61.40625 63.765625 61.15625 64.171875 60.976562 C 64.589844 60.789062 65.035156 60.695312 65.507812 60.695312 C 65.988281 60.695312 66.421875 60.789062 66.800781 60.96875 C 67.171875 61.148438 67.488281 61.390625 67.746094 61.699219 C 68.003906 62.003906 68.203125 62.355469 68.34375 62.746094 C 68.472656 63.140625 68.539062 63.558594 68.539062 63.992188 C 68.539062 64.476562 68.457031 64.933594 68.289062 65.363281 C 68.113281 65.78125 67.875 66.152344 67.574219 66.472656 C 67.269531 66.785156 66.910156 67.03125 66.5 67.210938 C 66.09375 67.390625 65.648438 67.480469 65.175781 67.480469 Z M 65.347656 66.679688 C 65.6875 66.679688 66 66.605469 66.277344 66.460938 C 66.558594 66.324219 66.800781 66.136719 66.996094 65.902344 C 67.195312 65.667969 67.347656 65.398438 67.457031 65.089844 C 67.566406 64.785156 67.621094 64.464844 67.621094 64.132812 C 67.621094 63.808594 67.570312 63.492188 67.46875 63.179688 C 67.363281 62.859375 67.214844 62.578125 67.015625 62.328125 C 66.824219 62.082031 66.585938 61.886719 66.304688 61.734375 C 66.015625 61.585938 65.6875 61.507812 65.328125 61.507812 C 64.984375 61.507812 64.675781 61.578125 64.398438 61.714844 C 64.121094 61.855469 63.886719 62.039062 63.6875 62.265625 C 63.480469 62.5 63.324219 62.773438 63.21875 63.089844 C 63.109375 63.394531 63.054688 63.714844 63.054688 64.054688 C 63.054688 64.371094 63.105469 64.6875 63.207031 65 C 63.308594 65.3125 63.460938 65.597656 63.660156 65.847656 C 63.851562 66.09375 64.089844 66.292969 64.371094 66.445312 C 64.65625 66.601562 64.980469 66.679688 65.347656 66.679688 Z M 70.410156 67.355469 L 70.410156 57.476562 L 71.292969 57.476562 L 71.292969 67.355469 Z M 75.886719 67.355469 L 74.757812 67.355469 L 71.714844 63.828125 L 74.539062 60.824219 L 75.578125 60.824219 L 72.726562 63.738281 Z M 82.09375 66.265625 L 82.09375 66.867188 C 81.960938 66.957031 81.800781 67.042969 81.613281 67.121094 C 81.433594 67.195312 81.242188 67.257812 81.039062 67.3125 C 80.832031 67.371094 80.625 67.414062 80.414062 67.4375 C 80.203125 67.46875 80.007812 67.480469 79.828125 67.480469 C 79.4375 67.480469 79.054688 67.414062 78.683594 67.273438 C 78.316406 67.136719 77.992188 66.933594 77.707031 66.660156 C 77.417969 66.382812 77.191406 66.039062 77.023438 65.625 C 76.847656 65.214844 76.761719 64.734375 76.761719 64.179688 C 76.761719 63.636719 76.84375 63.152344 77.011719 62.71875 C 77.179688 62.289062 77.40625 61.925781 77.691406 61.625 C 77.972656 61.324219 78.292969 61.097656 78.65625 60.941406 C 79.015625 60.777344 79.386719 60.695312 79.765625 60.695312 C 80.113281 60.695312 80.445312 60.761719 80.757812 60.886719 C 81.0625 61.019531 81.335938 61.203125 81.570312 61.4375 C 81.804688 61.671875 81.992188 61.960938 82.128906 62.304688 C 82.265625 62.640625 82.335938 63.019531 82.335938 63.441406 C 82.335938 63.53125 82.332031 63.644531 82.320312 63.78125 C 82.3125 63.925781 82.300781 64.070312 82.28125 64.214844 L 77.679688 64.214844 C 77.679688 64.570312 77.742188 64.894531 77.859375 65.191406 C 77.980469 65.484375 78.152344 65.742188 78.375 65.957031 C 78.597656 66.179688 78.867188 66.351562 79.1875 66.472656 C 79.511719 66.59375 79.875 66.652344 80.28125 66.652344 C 80.382812 66.652344 80.503906 66.644531 80.648438 66.632812 C 80.792969 66.621094 80.945312 66.605469 81.109375 66.578125 C 81.277344 66.550781 81.445312 66.511719 81.613281 66.460938 C 81.789062 66.410156 81.949219 66.34375 82.09375 66.265625 Z M 77.679688 63.511719 L 81.46875 63.511719 C 81.46875 63.179688 81.417969 62.890625 81.316406 62.636719 C 81.214844 62.390625 81.078125 62.183594 80.910156 62.015625 C 80.742188 61.847656 80.550781 61.71875 80.332031 61.636719 C 80.109375 61.550781 79.882812 61.507812 79.648438 61.507812 C 79.363281 61.507812 79.105469 61.566406 78.871094 61.679688 C 78.632812 61.792969 78.421875 61.945312 78.25 62.132812 C 78.082031 62.324219 77.945312 62.539062 77.84375 62.78125 C 77.746094 63.023438 77.691406 63.265625 77.679688 63.511719 Z M 84.242188 67.355469 L 84.242188 60.824219 L 84.945312 60.824219 L 85.070312 61.976562 C 85.214844 61.832031 85.378906 61.683594 85.558594 61.527344 C 85.738281 61.375 85.933594 61.242188 86.144531 61.121094 C 86.355469 60.996094 86.582031 60.890625 86.820312 60.8125 C 87.054688 60.734375 87.304688 60.695312 87.570312 60.695312 C 87.863281 60.695312 88.136719 60.75 88.382812 60.859375 C 88.628906 60.96875 88.84375 61.121094 89.03125 61.320312 C 89.210938 61.511719 89.351562 61.75 89.445312 62.03125 C 89.550781 62.316406 89.601562 62.628906 89.601562 62.980469 L 89.601562 67.355469 L 88.714844 67.355469 L 88.714844 63.105469 C 88.714844 62.847656 88.683594 62.621094 88.617188 62.429688 C 88.542969 62.230469 88.445312 62.066406 88.320312 61.933594 C 88.191406 61.800781 88.042969 61.703125 87.867188 61.636719 C 87.691406 61.5625 87.5 61.527344 87.289062 61.527344 C 86.921875 61.527344 86.558594 61.628906 86.199219 61.832031 C 85.84375 62.039062 85.484375 62.320312 85.125 62.683594 L 85.125 67.355469 Z M 84.242188 67.355469 "/>
<path style=" stroke:none;fill-rule:nonzero;fill:url(#linear0);" d="M 48 43.574219 L 58.554688 25.332031 L 37.445312 25.332031 Z M 36.023438 33.476562 L 25.46875 51.714844 L 46.582031 51.714844 Z M 59.976562 33.476562 L 49.417969 51.714844 L 70.53125 51.714844 Z M 59.976562 33.476562 "/>
</g>
</svg>
